<?xml version="1.0" encoding="UTF-8"?>
<svg width="24px" height="24px" viewBox="0 0 18 19" version="1.1" xmlns="http://www.w3.org/2000/svg" xmlns:xlink="http://www.w3.org/1999/xlink">
    <!-- Generator: Sketch 64 (93537) - https://sketch.com -->
    <title>Logos Logo - small</title>
    <desc>Created with Sketch.</desc>
    <defs>
        <polygon id="path-1" points="0 0.0563225806 17.9436774 0.0563225806 17.9436774 17.9999806 0 17.9999806"></polygon>
    </defs>
    <g id="Logos-logo---small" stroke="none" stroke-width="1" fill="none" fill-rule="evenodd">
        <g id="Group-6">
            <g id="Group-3" transform="translate(0.000000, 0.137265)">
                <mask id="mask-2" fill="white">
                    <use xlink:href="#path-1"></use>
                </mask>
                <g id="Clip-2"></g>
                <path d="M13.6476774,0.0563032258 L4.29619355,0.0563032258 C1.93316129,0.0563032258 0,1.98946452 0,4.35230323 L0,13.7039806 C0,14.6123032 0.215612903,15.3965613 0.701806452,16.0923677 C0.726580645,16.1275935 0.772064516,16.1872065 0.83283871,16.1417226 L1.20387097,15.8070774 L4.36587097,12.7004323 L4.42296774,12.6433355 L4.47154839,12.5947548 C4.56716129,12.5068839 4.56212903,12.4271419 4.50793548,12.3526258 C4.48916129,12.3264968 4.46941935,12.3007548 4.45025806,12.2744323 C3.78735484,11.3583677 3.44748387,10.2206903 3.44748387,9.0057871 C3.44748387,5.93475484 5.94619355,3.43585161 9.01703226,3.43585161 C12.0880645,3.43585161 14.5869677,5.93475484 14.5869677,9.0057871 C14.5869677,12.0770129 12.0880645,14.575529 9.01703226,14.575529 C7.77193548,14.575529 6.61896774,14.2213355 5.69032258,13.5280452 C5.65664516,13.5030774 5.59858065,13.4570129 5.56354839,13.4337871 C5.50877419,13.3977871 5.43987097,13.3805613 5.33574194,13.4883677 L5.23664516,13.5870774 L2.03012903,16.8543677 L1.86290323,17.0465613 C1.79380645,17.1286258 1.75219355,17.1646258 1.83116129,17.2304323 C1.85303226,17.2486258 1.82167742,17.2236581 1.84470968,17.2403032 C2.55367742,17.7574645 3.35632258,17.9999806 4.29619355,17.9999806 L13.6476774,17.9999806 C16.0105161,17.9999806 17.9436774,16.0668194 17.9436774,13.7039806 L17.9436774,4.35230323 C17.9436774,1.98946452 16.0105161,0.0563032258 13.6476774,0.0563032258" id="Fill-1" fill="#005EC3" mask="url(#mask-2)"></path>
            </g>
            <path d="M6.9678,9.14310968 L6.9678,7.81788387 L8.35457419,7.81788387 L8.35457419,6.42433548 L9.6798,6.42433548 L9.6798,7.81788387 L11.0733484,7.81788387 L11.0733484,9.14310968 L9.6798,9.14310968 L9.6798,11.8614968 L8.35457419,11.8614968 L8.35457419,9.14310968 L6.9678,9.14310968 Z M13.2618,9.14310968 C13.2618,6.80252903 11.3578645,4.89820645 9.01709032,4.89820645 C6.67650968,4.89820645 4.77257419,6.80252903 4.77257419,9.14310968 C4.77257419,11.4834968 6.67650968,13.3878194 9.01709032,13.3878194 C11.3578645,13.3878194 13.2618,11.4834968 13.2618,9.14310968 L13.2618,9.14310968 Z" id="Fill-4" fill="#005EC3"></path>
        </g>
    </g>
</svg>